{"title":"My.Name.Is.Nobody.[1973].DvdRip.XviD-Kna","uid":6682582,"size":1566089216,"categoryP":"video","categoryS":"movies","magnet":"?xt=urn:btih:f013ff680f9ac9322ee2b200527b87b70eaa7a11&amp;dn=My.Name.Is.Nobody.%5B1973%5D.DvdRip.XviD-Kna&amp;tr=udp%3A%2F%2Ftracker.openbittorrent.com%3A80&amp;tr=udp%3A%2F%2Fopen.demonii.com%3A1337&amp;tr=udp%3A%2F%2Ftracker.coppersurfer.tk%3A6969&amp;tr=udp%3A%2F%2Fexodus.desync.com%3A6969","seeders":1,"leechers":0,"uploader":"Jon.Pson","files":-1,"time":1316259446,"description":"A young, easygoing gunman (Hill) worships and competes with an old gunfighter (Fonda) who only wants to retire. \n\n\n\nGeneral\nComplete name                    : My.Name.Is.Nobody.[1973].DvdRip.XviD-KnÃƒÂ£\\My.Name.Is.Nobody.[1973].DvdRip.XviD-KnÃƒÂ£.avi\nFormat                           : AVI\nFormat/Info                      : Audio Video Interleave\nFile size                        : 1.46 GiB\nDuration                         : 1h 51mn\nOverall bit rate                 : 1 871 Kbps\nWriting application              : VirtualDubMod 1.5.4.1 (build 2178/release)\nWriting library                  : VirtualDubMod build 2178/release\n\nVideo\nID                               : 0\nFormat                           : MPEG-4 Visual\nFormat profile                   : Advanced Simple@L5\nFormat settings, BVOP            : No\nFormat settings, QPel            : No\nFormat settings, GMC             : No warppoints\nFormat settings, Matrix          : Custom\nCodec ID                         : XVID\nCodec ID/Hint                    : XviD\nDuration                         : 1h 51mn\nBit rate                         : 1 672 Kbps\nWidth                            : 720 pixels\nHeight                           : 256 pixels\nDisplay aspect ratio             : 2.813\nFrame rate                       : 25.000 fps\nColor space                      : YUV\nChroma subsampling               : 4:2:0\nBit depth                        : 8 bits\nScan type                        : Progressive\nCompression mode                 : Lossy\nBits/(Pixel*Frame)               : 0.363\nStream size                      : 1.30 GiB (89%)\nWriting library                  : XviD 1.2.1 (UTC 2008-12-04)\n\nAudio\nID                               : 1\nFormat                           : AC-3\nFormat/Info                      : Audio Coding 3\nMode extension                   : CM (complete main)\nCodec ID                         : 2000\nDuration                         : 1h 51mn\nBit rate mode                    : Constant\nBit rate                         : 192 Kbps\nChannel(s)                       : 2 channels\nChannel positions                : Front: L R\nSampling rate                    : 48.0 KHz\nBit depth                        : 16 bits\nCompression mode                 : Lossy\nStream size                      : 153 MiB (10%)\nAlignment                        : Split accross interleaves\nInterleave, duration             : 96 ms (2.40 video frames)\nInterleave, preload duration     : 96 ms\nLanguage                         : English\n\n","torrent":{"xt":"urn:btih:f013ff680f9ac9322ee2b200527b87b70eaa7a11","amp;dn":"My.Name.Is.Nobody.%5B1973%5D.DvdRip.XviD-Kna","amp;tr":["udp%3A%2F%2Ftracker.openbittorrent.com%3A80","udp%3A%2F%2Fopen.demonii.com%3A1337","udp%3A%2F%2Ftracker.coppersurfer.tk%3A6969","udp%3A%2F%2Fexodus.desync.com%3A6969"],"infoHash":"f013ff680f9ac9322ee2b200527b87b70eaa7a11","infoHashBuffer":{"type":"Buffer","data":[240,19,255,104,15,154,201,50,46,226,178,0,82,123,135,183,14,170,122,17]},"announce":[],"urlList":[]}}